<svg id="Hexels SVG Export" xmlns="http://www.w3.org/2000/svg" version="1.1" xmlns:xlink="http://www.w3.org/1999/xlink" viewBox="0 -0 485 440" xml:space="preserve">
<g id="Root" transform="matrix(1.000, 0.000, 0.000, 1.000, 0.000, -0.000)">
<g id="Layer 1" transform="matrix(1.000, 0.000, 0.000, 1.000, 0.000, -0.000)">
<path d="M 92.74,-0.34 L -0.49,-0.10 L -0.49,440.12 L 104.39,440.19 L 104.00,180.49 L 242.49,420.50 L 380.98,180.50 L 380.59,440.19 L 485.46,440.12 L 485.47,-0.10 L 392.23,-0.34 L 242.49,259.50 L 92.74,-0.34  z
" style="fill:#b740b1;fill-opacity:1.00"/>
<path d="M 91.89,0.11 L 242.49,260.50 L 393.09,0.11 L 299.95,-0.42 L 242.49,99.50 L 185.03,-0.42 L 91.89,0.11  z
" style="fill:#5e3434;fill-opacity:1.00"/>
<path d="M 173.69,299.87 L 103.48,179.78 L 103.44,440.13 L 173.65,440.22 L 173.69,299.87  z
" style="fill:#5e3434;fill-opacity:1.00"/>
<path d="M 381.54,440.13 L 381.50,179.78 L 311.29,299.87 L 311.32,440.22 L 381.54,440.13  z
" style="fill:#5e3434;fill-opacity:1.00"/>
</g>
</g></svg>
